<svg width="432" height="357" viewBox="0 0 432 357" fill="none" xmlns="http://www.w3.org/2000/svg">
<path d="M121.793 274H169.5V290.914L151 309.414V316.914L111.707 356.207L111.5 356V356.5H37V321.586L85.5 273.086V256.414L69 239.914V221.207L121.793 274ZM381.5 193H381.586L366.5 208.086V240.414L350.5 256.414V274.086L398.5 322.086V356.5H323.586L284 316.914V309.414L265.5 290.914V238.514L265.882 238.214L272.882 232.714L273.154 232.5H279.05L314.25 197.299L312.634 194.5L312.25 193.836L380.586 125.5H381.5V193ZM317.914 351.5H298.086L250.5 303.914V284.086L317.914 351.5ZM58.5 342.5H63.5V337H58.5V342.5ZM371 336V342H377V336H371ZM399.304 310.586V317.953L397.589 316.199L366.785 284.699L365.59 283.477L367.241 283.034L370.241 282.23L370.799 282.081L399.304 310.586ZM37 316.414V308.586L62.5859 283H70.4141L37 316.414ZM169.5 238.586V273H122.207L69 219.793V208.586L37.707 177.293L37 178V124.5H55.4141L169.5 238.586ZM432 24.0859V49.4141L399 82.4141V93.4141L235.414 257H223.086L188.086 222H164.086L0 57.9141V39.1875L1.68457 40.7715L89.0957 122.953L37.2803 69.1943L37 68.9033V10.5H59.4141L86.5 37.5859V42.0859L201.914 157.5H234.086L349.5 42.0859V38.0859L377.086 10.5H397V0H407.914L432 24.0859ZM398.5 208.414L368.5 238.414V208.914L398.5 178.914V208.414ZM67 209.414V237.914L37 207.914V179.414L67 209.414ZM132.5 218.5H136.5V223H138.5V216.5H132.5V218.5ZM398.5 176.086L382.5 192.086V125.5H398.5V176.086ZM135.5 113.414L177 154.914V140.578L176.698 140.284L137.198 101.784L135.5 100.129V113.414ZM58 30.5H64V24.5H58V30.5ZM371 30H377V24H371V30Z" fill="#D9D9D9" fill-opacity="0.73"/>
</svg>
