<svg width="458" height="338" viewBox="0 0 458 338" fill="none" xmlns="http://www.w3.org/2000/svg">
<path d="M458 144.586V313.414L433.414 338H144.586L120.586 314H73.4141L49.4141 338H24.5859L0 313.414V264.586L144.586 120H433.414L458 144.586ZM2 265.414V312.586L25.4141 336H48.5859L72.5859 312H121.414L145.414 336H432.586L456 312.586V145.414L432.586 122H145.414L2 265.414ZM121.414 24H288.586L312.586 0H409.414L434 24.5859V73.4141L409.414 98H145.414L0 243.414V24.5859L24.5859 0H97.4141L121.414 24ZM2 25.4141V238.586L144.586 96H408.586L432 72.5859V25.4141L408.586 2H313.414L289.414 26H120.586L96.5859 2H25.4141L2 25.4141Z" fill="black"/>
</svg>
