<svg width="803" height="1024" viewBox="0 0 803 1024" fill="none" xmlns="http://www.w3.org/2000/svg">
<path d="M134.706 0V61.042L118.122 89.8252L118.056 89.9414V308.658L118.147 308.788L144.5 346.157V463.272L118.228 486.123L118.056 486.272V834.432L118.202 834.578L240.302 956.931L240.448 957.077H523.498L562.056 995.714V1029.58H0V62H24V66.9678L48.9678 42H42.6035L24 60.6035V60H0V0H134.706ZM617 1021V1025H621V1021H617ZM626 1021V1025H671V1021H626ZM204 987V1013H230V987H204ZM249 987V1013H275V987H249ZM294 987V1013H320V987H294ZM224.879 990L217 997.879L219.121 1000L227 992.121V1007.88L219.121 1000L217 1002.12L224.879 1010H209.121L217 1002.12L214.879 1000L207 1007.88V992.121L214.879 1000L217 997.879L209.121 990H224.879ZM269.879 990L262 997.879L264.121 1000L272 992.121V1007.88L264.121 1000L262 1002.12L269.879 1010H254.121L262 1002.12L259.879 1000L252 1007.88V992.121L259.879 1000L262 997.879L254.121 990H269.879ZM314.879 990L307 997.879L309.121 1000L317 992.121V1007.88L309.121 1000L307 1002.12L314.879 1010H299.121L307 1002.12L304.879 1000L297 1007.88V992.121L304.879 1000L307 997.879L299.121 990H314.879ZM22 997V1001H26V997H22ZM22 958V962H26V958H22ZM22 919V923H26V919H22ZM22 880V884H26V880H22ZM14 156V866.5H18V156H14ZM22 815V819H26V815H22ZM22 802V806H26V802H22ZM22 763V767H26V763H22ZM22 724V728H26V724H22ZM22 685V689H26V685H22ZM22 646V650H26V646H22ZM22 607V611H26V607H22ZM22 568V572H26V568H22ZM22 246V534H26V246H22ZM22 160V164H26V160H22ZM26.7871 96H33.1514L78 51.1514V44.7871L26.7871 96ZM39.5146 96H45.8799L78 63.8789V57.5146L39.5146 96ZM52.2432 96H58.6064L78 76.6064V70.2432L52.2432 96ZM64.9717 96H78V82.9707L64.9717 96ZM68.0596 42L24 86.0596V92.4229L74.4229 42H68.0596ZM55.3311 42L24 73.3311V79.6953L61.6953 42H55.3311ZM24 42V54.2393L36.2393 42H24ZM267.775 0.200195L284.305 22.2393H362.094L362.239 22.3779L472.533 127.878H211.58L211.436 128.012L133.598 200.29L133.438 200.438V300.896L133.532 301.027L161.237 339.416V478.41L133.625 500.5L133.438 500.65V656.77L133.577 656.915L283.694 812.592L283.842 812.745H650.812L618.355 851.103L651.328 878.579L651.508 878.729V901.009L712.387 967.422H734.601L734.744 967.553L801.463 1028.71L802.41 1029.58H563.056V995.301L562.909 995.155L524.06 956.225L523.913 956.077H240.862L119.056 834.018V486.727L145.328 463.877L145.5 463.728V345.842L145.408 345.712L119.056 308.342V90.208L135.639 61.4258L135.706 61.3105V0H267.625L267.775 0.200195Z" fill="#D9D9D9"/>
</svg>
