<svg width="60" height="492" viewBox="0 0 60 492" fill="none" xmlns="http://www.w3.org/2000/svg">
<path d="M15.373 492H0V476.627L15.373 492ZM27.9297 492H22.4434L0 469.557V464.07L27.9297 492ZM40.4873 492H35.001L0 456.999V451.513L40.4873 492ZM53.0439 492H47.5576L0 444.442V438.955L53.0439 492ZM60 486.398V491.885L0 431.885V426.398L60 486.398ZM60 473.841V479.328L0 419.328V413.841L60 473.841ZM60 461.284V466.771L0 406.771V401.284L60 461.284ZM60 448.727V454.213L0 394.213V388.727L60 448.727ZM60 436.17V441.656L0 381.656V376.17L60 436.17ZM60 423.612V429.099L0 369.099V363.612L60 423.612ZM60 411.056V416.542L0 356.542V351.056L60 411.056ZM60 398.498V403.984L0 343.984V338.498L60 398.498ZM60 385.941V391.428L0 331.428V325.941L60 385.941ZM60 373.384V378.87L0 318.87V313.384L60 373.384ZM60 360.827V366.313L0 306.313V300.827L60 360.827ZM60 348.27V353.756L0 293.756V288.27L60 348.27ZM60 335.712V341.199L0 281.199V275.712L60 335.712ZM60 323.155V328.642L0 268.642V263.155L60 323.155ZM60 310.598V316.085L0 256.085V250.598L60 310.598ZM60 298.041V303.527L0 243.527V238.041L60 298.041ZM60 285.483V290.97L0 230.97V225.483L60 285.483ZM60 272.927V278.413L0 218.413V212.927L60 272.927ZM60 260.369V265.855L0 205.855V200.369L60 260.369ZM60 247.812V253.299L0 193.299V187.812L60 247.812ZM60 235.255V240.741L0 180.741V175.255L60 235.255ZM60 222.698V228.185L0 168.185V162.698L60 222.698ZM60 210.141V215.627L0 155.627V150.141L60 210.141ZM60 197.583V203.07L0 143.07V137.583L60 197.583ZM60 185.026V190.513L0 130.513V125.026L60 185.026ZM60 172.469V177.956L0 117.956V112.469L60 172.469ZM60 159.912V165.398L0 105.398V99.9121L60 159.912ZM60 147.354V152.841L0 92.8408V87.3545L60 147.354ZM60 134.798V140.284L0 80.2842V74.7979L60 134.798ZM60 122.24V127.727L0 67.7266V62.2402L60 122.24ZM60 109.684V115.17L0 55.1699V49.6836L60 109.684ZM60 97.126V102.612L0 42.6123V37.126L60 97.126ZM60 84.5693V90.0557L0 30.0557V24.5693L60 84.5693ZM60 72.0117V77.498L0 17.498V12.0117L60 72.0117ZM60 59.4551V64.9414L0 4.94141V0H0.544922L60 59.4551ZM60 46.8975V52.3838L7.61621 0H13.1025L60 46.8975ZM60 34.3408V39.8271L20.1729 0H25.6592L60 34.3408ZM60 21.7832V27.2695L32.7305 0H38.2168L60 21.7832ZM60 14.7129L45.2871 0H60V14.7129Z" fill="#E3184D"/>
</svg>
