<svg width="1438" height="457" viewBox="0 17 1438 440" fill="none" xmlns="http://www.w3.org/2000/svg" preserveAspectRatio="none">
<path d="M194 457H169V432H194V457ZM181.5 442.379L179.379 444.5L172 437.121V451.879L179.379 444.5L181.5 446.621L174.121 454H188.879L181.5 446.621L183.621 444.5L191 451.879V437.121L183.621 444.5L181.5 442.379L188.879 435H174.121L181.5 442.379ZM194 429H169V404H194V429ZM181.5 414.379L179.379 416.5L172 409.121V423.879L179.379 416.5L181.5 418.621L174.121 426H188.879L181.5 418.621L183.621 416.5L191 423.879V409.121L183.621 416.5L181.5 414.379L188.879 407H174.121L181.5 414.379ZM1244.85 409H1241.74L1239 406.263V403.154L1244.85 409ZM1251.96 409H1248.85L1239 399.147V396.038L1251.96 409ZM1259.08 409H1255.97L1239 392.031V388.923L1259.08 409ZM1266.19 409H1263.08L1239 384.916V381.807L1266.19 409ZM1273 408.691V409H1270.2L1239 377.8V375H1239.31L1273 408.691ZM1273 401.575V404.685L1243.32 375H1246.42L1273 401.575ZM194 400H169V375H194V400ZM1273 394.46V397.568L1250.43 375H1253.54L1273 394.46ZM181.5 385.379L179.379 387.5L172 380.121V394.879L179.379 387.5L181.5 389.621L174.121 397H188.879L181.5 389.621L183.621 387.5L191 394.879V380.121L183.621 387.5L181.5 385.379L188.879 378H174.121L181.5 385.379ZM1273 387.344V390.453L1257.55 375H1260.66L1273 387.344ZM1273 383.337L1264.66 375H1273V383.337ZM1325.5 161.414V231.837C1305.64 232.297 1283.01 233.746 1267.95 234.968L1235.21 267.707L1234.91 268H1022.41L983.414 307H293.914L265.414 335.5H139.586L111.086 307H0V239.5H78.4141L170.914 147H380.914L397.414 130.5H507.086L523.586 147H1133.41L1171.41 109H1273.09L1325.5 161.414ZM796.086 34H1025.41L1040.41 19H1217.41L1237.41 -1H1439.5V268H1399.59L1366.29 234.707C1366.06 234.478 1365.62 234.201 1364.88 233.918C1364.15 233.641 1363.21 233.386 1362.06 233.155C1359.77 232.694 1356.76 232.352 1353.17 232.115C1346.23 231.657 1337.26 231.599 1327.5 231.794V160.586L1273.91 107H1170.59L1132.59 145H524.414L507.914 128.5H396.586L380.086 145H170.086L77.5859 237.5H0V-1H761.086L796.086 34ZM1422 245H1430V237H1422V245ZM1422 234H1430V226H1422V234ZM1422 213H1430V209H1422V213ZM1422 206H1430V204H1422V206ZM1422 180H1430V172H1422V180ZM1165.09 158.5L1183.09 176.5H1213.41L1231.41 158.5L1226.91 154H1169.59L1165.09 158.5ZM1228.59 158.5L1212.59 174.5H1183.91L1167.91 158.5L1170.41 156H1226.09L1228.59 158.5ZM230 131H277.5V114H230V131ZM287.5 131H290V114H287.5V131ZM295 131H297.5V114H295V131ZM1216.59 17H1039.59L1024.59 32H796.914L763.914 -1H1234.59L1216.59 17Z" fill="#ffffff"/>
</svg>
